G75*
%MOIN*%
%OFA0B0*%
%FSLAX25Y25*%
%IPPOS*%
%LPD*%
%AMOC8*
5,1,8,0,0,1.08239X$1,22.5*
%
%ADD10C,0.00000*%
%ADD11C,0.00400*%
%ADD12C,0.00500*%
%ADD13C,0.01575*%
D10*
X0001000Y0001000D02*
X0001000Y0045882D01*
X0043520Y0045882D01*
X0043520Y0001000D01*
X0001000Y0001000D01*
X0007693Y0010843D02*
X0007695Y0010912D01*
X0007701Y0010980D01*
X0007711Y0011048D01*
X0007725Y0011115D01*
X0007743Y0011182D01*
X0007764Y0011247D01*
X0007790Y0011311D01*
X0007819Y0011373D01*
X0007851Y0011433D01*
X0007887Y0011492D01*
X0007927Y0011548D01*
X0007969Y0011602D01*
X0008015Y0011653D01*
X0008064Y0011702D01*
X0008115Y0011748D01*
X0008169Y0011790D01*
X0008225Y0011830D01*
X0008283Y0011866D01*
X0008344Y0011898D01*
X0008406Y0011927D01*
X0008470Y0011953D01*
X0008535Y0011974D01*
X0008602Y0011992D01*
X0008669Y0012006D01*
X0008737Y0012016D01*
X0008805Y0012022D01*
X0008874Y0012024D01*
X0008943Y0012022D01*
X0009011Y0012016D01*
X0009079Y0012006D01*
X0009146Y0011992D01*
X0009213Y0011974D01*
X0009278Y0011953D01*
X0009342Y0011927D01*
X0009404Y0011898D01*
X0009464Y0011866D01*
X0009523Y0011830D01*
X0009579Y0011790D01*
X0009633Y0011748D01*
X0009684Y0011702D01*
X0009733Y0011653D01*
X0009779Y0011602D01*
X0009821Y0011548D01*
X0009861Y0011492D01*
X0009897Y0011433D01*
X0009929Y0011373D01*
X0009958Y0011311D01*
X0009984Y0011247D01*
X0010005Y0011182D01*
X0010023Y0011115D01*
X0010037Y0011048D01*
X0010047Y0010980D01*
X0010053Y0010912D01*
X0010055Y0010843D01*
X0010053Y0010774D01*
X0010047Y0010706D01*
X0010037Y0010638D01*
X0010023Y0010571D01*
X0010005Y0010504D01*
X0009984Y0010439D01*
X0009958Y0010375D01*
X0009929Y0010313D01*
X0009897Y0010252D01*
X0009861Y0010194D01*
X0009821Y0010138D01*
X0009779Y0010084D01*
X0009733Y0010033D01*
X0009684Y0009984D01*
X0009633Y0009938D01*
X0009579Y0009896D01*
X0009523Y0009856D01*
X0009465Y0009820D01*
X0009404Y0009788D01*
X0009342Y0009759D01*
X0009278Y0009733D01*
X0009213Y0009712D01*
X0009146Y0009694D01*
X0009079Y0009680D01*
X0009011Y0009670D01*
X0008943Y0009664D01*
X0008874Y0009662D01*
X0008805Y0009664D01*
X0008737Y0009670D01*
X0008669Y0009680D01*
X0008602Y0009694D01*
X0008535Y0009712D01*
X0008470Y0009733D01*
X0008406Y0009759D01*
X0008344Y0009788D01*
X0008283Y0009820D01*
X0008225Y0009856D01*
X0008169Y0009896D01*
X0008115Y0009938D01*
X0008064Y0009984D01*
X0008015Y0010033D01*
X0007969Y0010084D01*
X0007927Y0010138D01*
X0007887Y0010194D01*
X0007851Y0010252D01*
X0007819Y0010313D01*
X0007790Y0010375D01*
X0007764Y0010439D01*
X0007743Y0010504D01*
X0007725Y0010571D01*
X0007711Y0010638D01*
X0007701Y0010706D01*
X0007695Y0010774D01*
X0007693Y0010843D01*
X0007693Y0017732D02*
X0007695Y0017801D01*
X0007701Y0017869D01*
X0007711Y0017937D01*
X0007725Y0018004D01*
X0007743Y0018071D01*
X0007764Y0018136D01*
X0007790Y0018200D01*
X0007819Y0018262D01*
X0007851Y0018322D01*
X0007887Y0018381D01*
X0007927Y0018437D01*
X0007969Y0018491D01*
X0008015Y0018542D01*
X0008064Y0018591D01*
X0008115Y0018637D01*
X0008169Y0018679D01*
X0008225Y0018719D01*
X0008283Y0018755D01*
X0008344Y0018787D01*
X0008406Y0018816D01*
X0008470Y0018842D01*
X0008535Y0018863D01*
X0008602Y0018881D01*
X0008669Y0018895D01*
X0008737Y0018905D01*
X0008805Y0018911D01*
X0008874Y0018913D01*
X0008943Y0018911D01*
X0009011Y0018905D01*
X0009079Y0018895D01*
X0009146Y0018881D01*
X0009213Y0018863D01*
X0009278Y0018842D01*
X0009342Y0018816D01*
X0009404Y0018787D01*
X0009464Y0018755D01*
X0009523Y0018719D01*
X0009579Y0018679D01*
X0009633Y0018637D01*
X0009684Y0018591D01*
X0009733Y0018542D01*
X0009779Y0018491D01*
X0009821Y0018437D01*
X0009861Y0018381D01*
X0009897Y0018322D01*
X0009929Y0018262D01*
X0009958Y0018200D01*
X0009984Y0018136D01*
X0010005Y0018071D01*
X0010023Y0018004D01*
X0010037Y0017937D01*
X0010047Y0017869D01*
X0010053Y0017801D01*
X0010055Y0017732D01*
X0010053Y0017663D01*
X0010047Y0017595D01*
X0010037Y0017527D01*
X0010023Y0017460D01*
X0010005Y0017393D01*
X0009984Y0017328D01*
X0009958Y0017264D01*
X0009929Y0017202D01*
X0009897Y0017141D01*
X0009861Y0017083D01*
X0009821Y0017027D01*
X0009779Y0016973D01*
X0009733Y0016922D01*
X0009684Y0016873D01*
X0009633Y0016827D01*
X0009579Y0016785D01*
X0009523Y0016745D01*
X0009465Y0016709D01*
X0009404Y0016677D01*
X0009342Y0016648D01*
X0009278Y0016622D01*
X0009213Y0016601D01*
X0009146Y0016583D01*
X0009079Y0016569D01*
X0009011Y0016559D01*
X0008943Y0016553D01*
X0008874Y0016551D01*
X0008805Y0016553D01*
X0008737Y0016559D01*
X0008669Y0016569D01*
X0008602Y0016583D01*
X0008535Y0016601D01*
X0008470Y0016622D01*
X0008406Y0016648D01*
X0008344Y0016677D01*
X0008283Y0016709D01*
X0008225Y0016745D01*
X0008169Y0016785D01*
X0008115Y0016827D01*
X0008064Y0016873D01*
X0008015Y0016922D01*
X0007969Y0016973D01*
X0007927Y0017027D01*
X0007887Y0017083D01*
X0007851Y0017141D01*
X0007819Y0017202D01*
X0007790Y0017264D01*
X0007764Y0017328D01*
X0007743Y0017393D01*
X0007725Y0017460D01*
X0007711Y0017527D01*
X0007701Y0017595D01*
X0007695Y0017663D01*
X0007693Y0017732D01*
X0007693Y0024425D02*
X0007695Y0024494D01*
X0007701Y0024562D01*
X0007711Y0024630D01*
X0007725Y0024697D01*
X0007743Y0024764D01*
X0007764Y0024829D01*
X0007790Y0024893D01*
X0007819Y0024955D01*
X0007851Y0025015D01*
X0007887Y0025074D01*
X0007927Y0025130D01*
X0007969Y0025184D01*
X0008015Y0025235D01*
X0008064Y0025284D01*
X0008115Y0025330D01*
X0008169Y0025372D01*
X0008225Y0025412D01*
X0008283Y0025448D01*
X0008344Y0025480D01*
X0008406Y0025509D01*
X0008470Y0025535D01*
X0008535Y0025556D01*
X0008602Y0025574D01*
X0008669Y0025588D01*
X0008737Y0025598D01*
X0008805Y0025604D01*
X0008874Y0025606D01*
X0008943Y0025604D01*
X0009011Y0025598D01*
X0009079Y0025588D01*
X0009146Y0025574D01*
X0009213Y0025556D01*
X0009278Y0025535D01*
X0009342Y0025509D01*
X0009404Y0025480D01*
X0009464Y0025448D01*
X0009523Y0025412D01*
X0009579Y0025372D01*
X0009633Y0025330D01*
X0009684Y0025284D01*
X0009733Y0025235D01*
X0009779Y0025184D01*
X0009821Y0025130D01*
X0009861Y0025074D01*
X0009897Y0025015D01*
X0009929Y0024955D01*
X0009958Y0024893D01*
X0009984Y0024829D01*
X0010005Y0024764D01*
X0010023Y0024697D01*
X0010037Y0024630D01*
X0010047Y0024562D01*
X0010053Y0024494D01*
X0010055Y0024425D01*
X0010053Y0024356D01*
X0010047Y0024288D01*
X0010037Y0024220D01*
X0010023Y0024153D01*
X0010005Y0024086D01*
X0009984Y0024021D01*
X0009958Y0023957D01*
X0009929Y0023895D01*
X0009897Y0023834D01*
X0009861Y0023776D01*
X0009821Y0023720D01*
X0009779Y0023666D01*
X0009733Y0023615D01*
X0009684Y0023566D01*
X0009633Y0023520D01*
X0009579Y0023478D01*
X0009523Y0023438D01*
X0009465Y0023402D01*
X0009404Y0023370D01*
X0009342Y0023341D01*
X0009278Y0023315D01*
X0009213Y0023294D01*
X0009146Y0023276D01*
X0009079Y0023262D01*
X0009011Y0023252D01*
X0008943Y0023246D01*
X0008874Y0023244D01*
X0008805Y0023246D01*
X0008737Y0023252D01*
X0008669Y0023262D01*
X0008602Y0023276D01*
X0008535Y0023294D01*
X0008470Y0023315D01*
X0008406Y0023341D01*
X0008344Y0023370D01*
X0008283Y0023402D01*
X0008225Y0023438D01*
X0008169Y0023478D01*
X0008115Y0023520D01*
X0008064Y0023566D01*
X0008015Y0023615D01*
X0007969Y0023666D01*
X0007927Y0023720D01*
X0007887Y0023776D01*
X0007851Y0023834D01*
X0007819Y0023895D01*
X0007790Y0023957D01*
X0007764Y0024021D01*
X0007743Y0024086D01*
X0007725Y0024153D01*
X0007711Y0024220D01*
X0007701Y0024288D01*
X0007695Y0024356D01*
X0007693Y0024425D01*
X0007693Y0032299D02*
X0007695Y0032368D01*
X0007701Y0032436D01*
X0007711Y0032504D01*
X0007725Y0032571D01*
X0007743Y0032638D01*
X0007764Y0032703D01*
X0007790Y0032767D01*
X0007819Y0032829D01*
X0007851Y0032889D01*
X0007887Y0032948D01*
X0007927Y0033004D01*
X0007969Y0033058D01*
X0008015Y0033109D01*
X0008064Y0033158D01*
X0008115Y0033204D01*
X0008169Y0033246D01*
X0008225Y0033286D01*
X0008283Y0033322D01*
X0008344Y0033354D01*
X0008406Y0033383D01*
X0008470Y0033409D01*
X0008535Y0033430D01*
X0008602Y0033448D01*
X0008669Y0033462D01*
X0008737Y0033472D01*
X0008805Y0033478D01*
X0008874Y0033480D01*
X0008943Y0033478D01*
X0009011Y0033472D01*
X0009079Y0033462D01*
X0009146Y0033448D01*
X0009213Y0033430D01*
X0009278Y0033409D01*
X0009342Y0033383D01*
X0009404Y0033354D01*
X0009464Y0033322D01*
X0009523Y0033286D01*
X0009579Y0033246D01*
X0009633Y0033204D01*
X0009684Y0033158D01*
X0009733Y0033109D01*
X0009779Y0033058D01*
X0009821Y0033004D01*
X0009861Y0032948D01*
X0009897Y0032889D01*
X0009929Y0032829D01*
X0009958Y0032767D01*
X0009984Y0032703D01*
X0010005Y0032638D01*
X0010023Y0032571D01*
X0010037Y0032504D01*
X0010047Y0032436D01*
X0010053Y0032368D01*
X0010055Y0032299D01*
X0010053Y0032230D01*
X0010047Y0032162D01*
X0010037Y0032094D01*
X0010023Y0032027D01*
X0010005Y0031960D01*
X0009984Y0031895D01*
X0009958Y0031831D01*
X0009929Y0031769D01*
X0009897Y0031708D01*
X0009861Y0031650D01*
X0009821Y0031594D01*
X0009779Y0031540D01*
X0009733Y0031489D01*
X0009684Y0031440D01*
X0009633Y0031394D01*
X0009579Y0031352D01*
X0009523Y0031312D01*
X0009465Y0031276D01*
X0009404Y0031244D01*
X0009342Y0031215D01*
X0009278Y0031189D01*
X0009213Y0031168D01*
X0009146Y0031150D01*
X0009079Y0031136D01*
X0009011Y0031126D01*
X0008943Y0031120D01*
X0008874Y0031118D01*
X0008805Y0031120D01*
X0008737Y0031126D01*
X0008669Y0031136D01*
X0008602Y0031150D01*
X0008535Y0031168D01*
X0008470Y0031189D01*
X0008406Y0031215D01*
X0008344Y0031244D01*
X0008283Y0031276D01*
X0008225Y0031312D01*
X0008169Y0031352D01*
X0008115Y0031394D01*
X0008064Y0031440D01*
X0008015Y0031489D01*
X0007969Y0031540D01*
X0007927Y0031594D01*
X0007887Y0031650D01*
X0007851Y0031708D01*
X0007819Y0031769D01*
X0007790Y0031831D01*
X0007764Y0031895D01*
X0007743Y0031960D01*
X0007725Y0032027D01*
X0007711Y0032094D01*
X0007701Y0032162D01*
X0007695Y0032230D01*
X0007693Y0032299D01*
D11*
X0017204Y0039527D02*
X0017204Y0044131D01*
X0019506Y0044131D01*
X0020273Y0043363D01*
X0020273Y0041829D01*
X0019506Y0041061D01*
X0017204Y0041061D01*
X0018739Y0041061D02*
X0020273Y0039527D01*
X0021808Y0039527D02*
X0024877Y0042596D01*
X0024877Y0043363D01*
X0024110Y0044131D01*
X0022575Y0044131D01*
X0021808Y0043363D01*
X0021808Y0039527D02*
X0024877Y0039527D01*
X0034520Y0030586D02*
X0034520Y0027517D01*
X0034520Y0029051D02*
X0029917Y0029051D01*
X0031451Y0027517D01*
X0030684Y0025982D02*
X0029917Y0025215D01*
X0029917Y0023680D01*
X0030684Y0022913D01*
X0033753Y0022913D01*
X0034520Y0023680D01*
X0034520Y0025215D01*
X0033753Y0025982D01*
X0026804Y0025828D02*
X0022200Y0025828D01*
X0023735Y0024293D01*
X0024502Y0022758D02*
X0022967Y0022758D01*
X0022200Y0021991D01*
X0022200Y0019689D01*
X0026804Y0019689D01*
X0025269Y0019689D02*
X0025269Y0021991D01*
X0024502Y0022758D01*
X0025269Y0021224D02*
X0026804Y0022758D01*
X0026804Y0024293D02*
X0026804Y0027362D01*
X0040684Y0012992D02*
X0041451Y0012992D01*
X0042219Y0012225D01*
X0042986Y0012992D01*
X0043753Y0012992D01*
X0044520Y0012225D01*
X0044520Y0010690D01*
X0043753Y0009923D01*
X0042219Y0011457D02*
X0042219Y0012225D01*
X0040684Y0012992D02*
X0039917Y0012225D01*
X0039917Y0010690D01*
X0040684Y0009923D01*
X0040684Y0008388D02*
X0039917Y0007621D01*
X0039917Y0006086D01*
X0040684Y0005319D01*
X0043753Y0005319D01*
X0044520Y0006086D01*
X0044520Y0007621D01*
X0043753Y0008388D01*
D12*
X0029937Y0006709D02*
X0029937Y0005528D01*
X0028756Y0005528D01*
X0019307Y0005528D02*
X0018126Y0005528D01*
X0018126Y0006709D01*
X0016301Y0008584D02*
X0016301Y0009751D01*
X0015717Y0010335D01*
X0012798Y0010335D01*
X0013966Y0011683D02*
X0012798Y0012851D01*
X0016301Y0012851D01*
X0016301Y0014018D02*
X0016301Y0011683D01*
X0016301Y0008584D02*
X0015717Y0008000D01*
X0012798Y0008000D01*
X0018126Y0016157D02*
X0018126Y0017339D01*
X0019307Y0017339D01*
X0028756Y0017339D02*
X0029937Y0017339D01*
X0029937Y0016157D01*
D13*
X0017339Y0004346D03*
M02*
