G75*
%MOIN*%
%OFA0B0*%
%FSLAX25Y25*%
%IPPOS*%
%LPD*%
%AMOC8*
5,1,8,0,0,1.08239X$1,22.5*
%
%ADD10R,0.03150X0.02756*%
%ADD11R,0.03543X0.05315*%
%ADD12C,0.02400*%
%ADD13R,0.03150X0.02362*%
%ADD14R,0.03937X0.04331*%
%ADD15C,0.00906*%
%ADD16R,0.04331X0.03937*%
%ADD17C,0.00591*%
%ADD18C,0.01000*%
D10*
X0029150Y0023638D03*
D11*
X0028362Y0032004D03*
D12*
X0007760Y0032299D02*
X0007762Y0032366D01*
X0007768Y0032432D01*
X0007778Y0032498D01*
X0007792Y0032563D01*
X0007809Y0032627D01*
X0007831Y0032690D01*
X0007856Y0032752D01*
X0007885Y0032812D01*
X0007918Y0032870D01*
X0007954Y0032927D01*
X0007993Y0032980D01*
X0008035Y0033032D01*
X0008080Y0033081D01*
X0008129Y0033127D01*
X0008179Y0033170D01*
X0008233Y0033210D01*
X0008288Y0033247D01*
X0008346Y0033280D01*
X0008406Y0033310D01*
X0008467Y0033336D01*
X0008530Y0033358D01*
X0008594Y0033377D01*
X0008659Y0033392D01*
X0008724Y0033403D01*
X0008791Y0033410D01*
X0008857Y0033413D01*
X0008924Y0033412D01*
X0008990Y0033407D01*
X0009056Y0033398D01*
X0009122Y0033385D01*
X0009186Y0033368D01*
X0009250Y0033348D01*
X0009312Y0033323D01*
X0009372Y0033295D01*
X0009431Y0033264D01*
X0009488Y0033229D01*
X0009542Y0033190D01*
X0009594Y0033149D01*
X0009644Y0033104D01*
X0009691Y0033057D01*
X0009734Y0033007D01*
X0009775Y0032954D01*
X0009813Y0032899D01*
X0009847Y0032842D01*
X0009878Y0032782D01*
X0009905Y0032721D01*
X0009928Y0032659D01*
X0009948Y0032595D01*
X0009964Y0032531D01*
X0009976Y0032465D01*
X0009984Y0032399D01*
X0009988Y0032332D01*
X0009988Y0032266D01*
X0009984Y0032199D01*
X0009976Y0032133D01*
X0009964Y0032067D01*
X0009948Y0032003D01*
X0009928Y0031939D01*
X0009905Y0031877D01*
X0009878Y0031816D01*
X0009847Y0031756D01*
X0009813Y0031699D01*
X0009775Y0031644D01*
X0009734Y0031591D01*
X0009691Y0031541D01*
X0009644Y0031494D01*
X0009594Y0031449D01*
X0009542Y0031408D01*
X0009488Y0031369D01*
X0009431Y0031334D01*
X0009372Y0031303D01*
X0009312Y0031275D01*
X0009250Y0031250D01*
X0009186Y0031230D01*
X0009122Y0031213D01*
X0009056Y0031200D01*
X0008990Y0031191D01*
X0008924Y0031186D01*
X0008857Y0031185D01*
X0008791Y0031188D01*
X0008724Y0031195D01*
X0008659Y0031206D01*
X0008594Y0031221D01*
X0008530Y0031240D01*
X0008467Y0031262D01*
X0008406Y0031288D01*
X0008346Y0031318D01*
X0008288Y0031351D01*
X0008233Y0031388D01*
X0008179Y0031428D01*
X0008129Y0031471D01*
X0008080Y0031517D01*
X0008035Y0031566D01*
X0007993Y0031618D01*
X0007954Y0031671D01*
X0007918Y0031728D01*
X0007885Y0031786D01*
X0007856Y0031846D01*
X0007831Y0031908D01*
X0007809Y0031971D01*
X0007792Y0032035D01*
X0007778Y0032100D01*
X0007768Y0032166D01*
X0007762Y0032232D01*
X0007760Y0032299D01*
X0007553Y0024425D02*
X0007555Y0024497D01*
X0007561Y0024569D01*
X0007571Y0024641D01*
X0007584Y0024711D01*
X0007602Y0024781D01*
X0007623Y0024850D01*
X0007648Y0024918D01*
X0007677Y0024984D01*
X0007710Y0025049D01*
X0007745Y0025111D01*
X0007784Y0025172D01*
X0007827Y0025230D01*
X0007872Y0025286D01*
X0007921Y0025340D01*
X0007972Y0025390D01*
X0008026Y0025438D01*
X0008083Y0025483D01*
X0008142Y0025525D01*
X0008203Y0025563D01*
X0008266Y0025598D01*
X0008331Y0025629D01*
X0008398Y0025657D01*
X0008466Y0025681D01*
X0008535Y0025702D01*
X0008605Y0025718D01*
X0008676Y0025731D01*
X0008748Y0025740D01*
X0008820Y0025745D01*
X0008892Y0025746D01*
X0008964Y0025743D01*
X0009036Y0025736D01*
X0009107Y0025725D01*
X0009178Y0025711D01*
X0009248Y0025692D01*
X0009316Y0025670D01*
X0009384Y0025644D01*
X0009449Y0025614D01*
X0009514Y0025581D01*
X0009576Y0025544D01*
X0009636Y0025504D01*
X0009694Y0025461D01*
X0009749Y0025415D01*
X0009802Y0025365D01*
X0009852Y0025313D01*
X0009899Y0025259D01*
X0009943Y0025201D01*
X0009984Y0025142D01*
X0010021Y0025080D01*
X0010055Y0025017D01*
X0010086Y0024951D01*
X0010113Y0024884D01*
X0010136Y0024816D01*
X0010155Y0024747D01*
X0010171Y0024676D01*
X0010183Y0024605D01*
X0010191Y0024533D01*
X0010195Y0024461D01*
X0010195Y0024389D01*
X0010191Y0024317D01*
X0010183Y0024245D01*
X0010171Y0024174D01*
X0010155Y0024103D01*
X0010136Y0024034D01*
X0010113Y0023966D01*
X0010086Y0023899D01*
X0010055Y0023833D01*
X0010021Y0023770D01*
X0009984Y0023708D01*
X0009943Y0023649D01*
X0009899Y0023591D01*
X0009852Y0023537D01*
X0009802Y0023485D01*
X0009749Y0023435D01*
X0009694Y0023389D01*
X0009636Y0023346D01*
X0009576Y0023306D01*
X0009514Y0023269D01*
X0009449Y0023236D01*
X0009384Y0023206D01*
X0009316Y0023180D01*
X0009248Y0023158D01*
X0009178Y0023139D01*
X0009107Y0023125D01*
X0009036Y0023114D01*
X0008964Y0023107D01*
X0008892Y0023104D01*
X0008820Y0023105D01*
X0008748Y0023110D01*
X0008676Y0023119D01*
X0008605Y0023132D01*
X0008535Y0023148D01*
X0008466Y0023169D01*
X0008398Y0023193D01*
X0008331Y0023221D01*
X0008266Y0023252D01*
X0008203Y0023287D01*
X0008142Y0023325D01*
X0008083Y0023367D01*
X0008026Y0023412D01*
X0007972Y0023460D01*
X0007921Y0023510D01*
X0007872Y0023564D01*
X0007827Y0023620D01*
X0007784Y0023678D01*
X0007745Y0023739D01*
X0007710Y0023801D01*
X0007677Y0023866D01*
X0007648Y0023932D01*
X0007623Y0024000D01*
X0007602Y0024069D01*
X0007584Y0024139D01*
X0007571Y0024209D01*
X0007561Y0024281D01*
X0007555Y0024353D01*
X0007553Y0024425D01*
X0007726Y0017732D02*
X0007728Y0017799D01*
X0007734Y0017867D01*
X0007744Y0017933D01*
X0007758Y0017999D01*
X0007775Y0018064D01*
X0007797Y0018128D01*
X0007822Y0018191D01*
X0007850Y0018252D01*
X0007883Y0018311D01*
X0007918Y0018368D01*
X0007957Y0018423D01*
X0007999Y0018476D01*
X0008045Y0018526D01*
X0008093Y0018573D01*
X0008143Y0018617D01*
X0008196Y0018659D01*
X0008252Y0018697D01*
X0008310Y0018732D01*
X0008369Y0018763D01*
X0008431Y0018791D01*
X0008494Y0018815D01*
X0008558Y0018836D01*
X0008623Y0018852D01*
X0008689Y0018865D01*
X0008756Y0018874D01*
X0008823Y0018879D01*
X0008891Y0018880D01*
X0008958Y0018877D01*
X0009025Y0018870D01*
X0009092Y0018859D01*
X0009158Y0018844D01*
X0009222Y0018826D01*
X0009286Y0018804D01*
X0009348Y0018778D01*
X0009409Y0018748D01*
X0009467Y0018715D01*
X0009524Y0018678D01*
X0009578Y0018638D01*
X0009630Y0018596D01*
X0009680Y0018550D01*
X0009726Y0018501D01*
X0009770Y0018450D01*
X0009811Y0018396D01*
X0009848Y0018340D01*
X0009882Y0018282D01*
X0009912Y0018221D01*
X0009939Y0018160D01*
X0009963Y0018096D01*
X0009982Y0018032D01*
X0009998Y0017966D01*
X0010010Y0017900D01*
X0010018Y0017833D01*
X0010022Y0017766D01*
X0010022Y0017698D01*
X0010018Y0017631D01*
X0010010Y0017564D01*
X0009998Y0017498D01*
X0009982Y0017432D01*
X0009963Y0017368D01*
X0009939Y0017304D01*
X0009912Y0017243D01*
X0009882Y0017182D01*
X0009848Y0017124D01*
X0009811Y0017068D01*
X0009770Y0017014D01*
X0009726Y0016963D01*
X0009680Y0016914D01*
X0009630Y0016868D01*
X0009578Y0016826D01*
X0009524Y0016786D01*
X0009467Y0016749D01*
X0009409Y0016716D01*
X0009348Y0016686D01*
X0009286Y0016660D01*
X0009222Y0016638D01*
X0009158Y0016620D01*
X0009092Y0016605D01*
X0009025Y0016594D01*
X0008958Y0016587D01*
X0008891Y0016584D01*
X0008823Y0016585D01*
X0008756Y0016590D01*
X0008689Y0016599D01*
X0008623Y0016612D01*
X0008558Y0016628D01*
X0008494Y0016649D01*
X0008431Y0016673D01*
X0008369Y0016701D01*
X0008310Y0016732D01*
X0008252Y0016767D01*
X0008196Y0016805D01*
X0008143Y0016847D01*
X0008093Y0016891D01*
X0008045Y0016938D01*
X0007999Y0016988D01*
X0007957Y0017041D01*
X0007918Y0017096D01*
X0007883Y0017153D01*
X0007850Y0017212D01*
X0007822Y0017273D01*
X0007797Y0017336D01*
X0007775Y0017400D01*
X0007758Y0017465D01*
X0007744Y0017531D01*
X0007734Y0017597D01*
X0007728Y0017665D01*
X0007726Y0017732D01*
X0007677Y0010843D02*
X0007679Y0010912D01*
X0007685Y0010981D01*
X0007695Y0011049D01*
X0007709Y0011117D01*
X0007726Y0011183D01*
X0007748Y0011249D01*
X0007773Y0011313D01*
X0007802Y0011376D01*
X0007835Y0011437D01*
X0007870Y0011495D01*
X0007910Y0011552D01*
X0007952Y0011607D01*
X0007998Y0011658D01*
X0008046Y0011708D01*
X0008097Y0011754D01*
X0008151Y0011797D01*
X0008207Y0011837D01*
X0008266Y0011874D01*
X0008326Y0011907D01*
X0008388Y0011937D01*
X0008452Y0011963D01*
X0008517Y0011986D01*
X0008584Y0012004D01*
X0008651Y0012019D01*
X0008719Y0012030D01*
X0008788Y0012037D01*
X0008857Y0012040D01*
X0008926Y0012039D01*
X0008995Y0012034D01*
X0009063Y0012025D01*
X0009131Y0012012D01*
X0009198Y0011995D01*
X0009264Y0011975D01*
X0009328Y0011951D01*
X0009391Y0011923D01*
X0009452Y0011891D01*
X0009512Y0011856D01*
X0009569Y0011817D01*
X0009624Y0011776D01*
X0009677Y0011731D01*
X0009726Y0011683D01*
X0009773Y0011633D01*
X0009817Y0011580D01*
X0009858Y0011524D01*
X0009896Y0011466D01*
X0009930Y0011406D01*
X0009961Y0011345D01*
X0009988Y0011281D01*
X0010011Y0011216D01*
X0010031Y0011150D01*
X0010047Y0011083D01*
X0010059Y0011015D01*
X0010067Y0010946D01*
X0010071Y0010877D01*
X0010071Y0010809D01*
X0010067Y0010740D01*
X0010059Y0010671D01*
X0010047Y0010603D01*
X0010031Y0010536D01*
X0010011Y0010470D01*
X0009988Y0010405D01*
X0009961Y0010341D01*
X0009930Y0010280D01*
X0009896Y0010220D01*
X0009858Y0010162D01*
X0009817Y0010106D01*
X0009773Y0010053D01*
X0009726Y0010003D01*
X0009677Y0009955D01*
X0009624Y0009910D01*
X0009569Y0009869D01*
X0009512Y0009830D01*
X0009452Y0009795D01*
X0009391Y0009763D01*
X0009328Y0009735D01*
X0009264Y0009711D01*
X0009198Y0009691D01*
X0009131Y0009674D01*
X0009063Y0009661D01*
X0008995Y0009652D01*
X0008926Y0009647D01*
X0008857Y0009646D01*
X0008788Y0009649D01*
X0008719Y0009656D01*
X0008651Y0009667D01*
X0008584Y0009682D01*
X0008517Y0009700D01*
X0008452Y0009723D01*
X0008388Y0009749D01*
X0008326Y0009779D01*
X0008266Y0009812D01*
X0008207Y0009849D01*
X0008151Y0009889D01*
X0008097Y0009932D01*
X0008046Y0009978D01*
X0007998Y0010028D01*
X0007952Y0010079D01*
X0007910Y0010134D01*
X0007870Y0010191D01*
X0007835Y0010249D01*
X0007802Y0010310D01*
X0007773Y0010373D01*
X0007748Y0010437D01*
X0007726Y0010503D01*
X0007709Y0010569D01*
X0007695Y0010637D01*
X0007685Y0010705D01*
X0007679Y0010774D01*
X0007677Y0010843D01*
D13*
X0029150Y0021276D03*
D14*
X0037220Y0021866D03*
X0037220Y0015173D03*
X0037220Y0008480D03*
X0037220Y0028559D03*
X0022850Y0036827D03*
X0016157Y0036827D03*
D15*
X0020094Y0018067D02*
X0020094Y0016611D01*
X0021669Y0016611D02*
X0021669Y0018067D01*
X0023244Y0018067D02*
X0023244Y0016611D01*
X0024819Y0016611D02*
X0024819Y0018067D01*
X0026394Y0018067D02*
X0026394Y0016611D01*
X0027969Y0016611D02*
X0027969Y0018067D01*
X0029209Y0015370D02*
X0030665Y0015370D01*
X0030665Y0013795D02*
X0029209Y0013795D01*
X0029209Y0012220D02*
X0030665Y0012220D01*
X0030665Y0010646D02*
X0029209Y0010646D01*
X0029209Y0009071D02*
X0030665Y0009071D01*
X0030665Y0007496D02*
X0029209Y0007496D01*
X0027969Y0006256D02*
X0027969Y0004800D01*
X0026394Y0004800D02*
X0026394Y0006256D01*
X0024819Y0006256D02*
X0024819Y0004800D01*
X0023244Y0004800D02*
X0023244Y0006256D01*
X0021669Y0006256D02*
X0021669Y0004800D01*
X0020094Y0004800D02*
X0020094Y0006256D01*
X0018854Y0007496D02*
X0017398Y0007496D01*
X0017398Y0009071D02*
X0018854Y0009071D01*
X0018854Y0010646D02*
X0017398Y0010646D01*
X0017398Y0012220D02*
X0018854Y0012220D01*
X0018854Y0013795D02*
X0017398Y0013795D01*
X0017398Y0015370D02*
X0018854Y0015370D01*
D16*
X0019504Y0022850D03*
X0019504Y0029543D03*
D17*
X0003756Y0007496D02*
X0006512Y0004740D01*
X0019307Y0004740D01*
X0020094Y0005528D01*
X0020094Y0004740D01*
X0021276Y0003559D01*
X0031906Y0003559D01*
X0037417Y0009071D01*
X0029937Y0009071D01*
X0035843Y0009071D01*
X0035843Y0007102D01*
X0032693Y0010646D02*
X0037220Y0015173D01*
X0034071Y0014976D02*
X0034071Y0027969D01*
X0034661Y0028559D01*
X0037220Y0028559D01*
X0034858Y0031315D02*
X0034858Y0031906D01*
X0035646Y0032693D01*
X0039583Y0032693D01*
X0040764Y0031512D01*
X0040764Y0022654D01*
X0039976Y0021866D01*
X0037220Y0021866D01*
X0031906Y0026787D02*
X0031118Y0027575D01*
X0034858Y0031315D01*
X0034858Y0031906D02*
X0024819Y0041945D01*
X0013008Y0041945D01*
X0008874Y0037811D01*
X0008874Y0032299D01*
X0012811Y0028362D02*
X0008874Y0024425D01*
X0008087Y0024425D01*
X0003756Y0020094D01*
X0003756Y0007496D01*
X0005134Y0008677D02*
X0005134Y0013992D01*
X0008874Y0017732D01*
X0012220Y0017732D01*
X0013205Y0018717D01*
X0013205Y0026787D01*
X0014780Y0028362D01*
X0014780Y0035449D01*
X0016157Y0036827D01*
X0012811Y0039583D02*
X0012811Y0028362D01*
X0014583Y0024622D02*
X0019504Y0029543D01*
X0014583Y0024622D02*
X0014583Y0017929D01*
X0012614Y0015961D01*
X0012614Y0010843D01*
X0009268Y0010843D01*
X0012614Y0010843D02*
X0014386Y0009071D01*
X0018126Y0009071D01*
X0018126Y0010646D02*
X0016748Y0010646D01*
X0014780Y0012614D01*
X0014780Y0016551D01*
X0015764Y0017535D01*
X0015764Y0019110D01*
X0019504Y0022850D01*
X0023047Y0022850D01*
X0023835Y0023638D01*
X0023835Y0035843D01*
X0023638Y0036630D02*
X0024622Y0036630D01*
X0028165Y0033087D01*
X0022850Y0036827D02*
X0018913Y0040764D01*
X0013992Y0040764D01*
X0012811Y0039583D01*
X0026000Y0025213D02*
X0027575Y0026787D01*
X0030331Y0026787D01*
X0031118Y0027575D01*
X0031906Y0026787D02*
X0031906Y0014386D01*
X0031315Y0013795D01*
X0029937Y0013795D01*
X0029937Y0012220D02*
X0031315Y0012220D01*
X0034071Y0014976D01*
X0032693Y0010646D02*
X0029937Y0010646D01*
X0027969Y0017339D02*
X0027969Y0022457D01*
X0028953Y0023441D01*
X0028953Y0023638D01*
X0026000Y0025213D02*
X0026000Y0021472D01*
X0024031Y0019504D01*
X0019898Y0019504D01*
X0018913Y0018520D01*
X0020094Y0017339D01*
X0018913Y0018520D02*
X0018126Y0018520D01*
X0016945Y0017339D01*
X0016945Y0016748D01*
X0015961Y0015764D01*
X0015961Y0014780D01*
X0016945Y0013795D01*
X0018126Y0013795D01*
X0018126Y0007496D02*
X0006315Y0007496D01*
X0005134Y0008677D01*
D18*
X0023835Y0035843D02*
X0023835Y0036827D01*
X0023835Y0035843D02*
X0022850Y0036827D01*
X0022850Y0037417D01*
X0022850Y0036827D02*
X0022850Y0038205D01*
X0037220Y0021866D02*
X0037220Y0015173D01*
X0036630Y0009071D02*
X0037220Y0008480D01*
X0035843Y0007102D01*
M02*
