G75*
%MOIN*%
%OFA0B0*%
%FSLAX25Y25*%
%IPPOS*%
%LPD*%
%AMOC8*
5,1,8,0,0,1.08239X$1,22.5*
%
%ADD10C,0.03162*%
%ADD11R,0.04737X0.05131*%
%ADD12C,0.01706*%
%ADD13R,0.05131X0.04737*%
D10*
X0008874Y0010843D03*
X0008874Y0017732D03*
X0008874Y0024425D03*
X0008874Y0032299D03*
D11*
X0016157Y0036827D03*
X0022850Y0036827D03*
X0037220Y0028559D03*
X0037220Y0021866D03*
X0037220Y0015173D03*
X0037220Y0008480D03*
D12*
X0030665Y0009071D02*
X0029209Y0009071D01*
X0029209Y0010646D02*
X0030665Y0010646D01*
X0030665Y0012220D02*
X0029209Y0012220D01*
X0029209Y0013795D02*
X0030665Y0013795D01*
X0030665Y0015370D02*
X0029209Y0015370D01*
X0027969Y0016611D02*
X0027969Y0018067D01*
X0026394Y0018067D02*
X0026394Y0016611D01*
X0024819Y0016611D02*
X0024819Y0018067D01*
X0023244Y0018067D02*
X0023244Y0016611D01*
X0021669Y0016611D02*
X0021669Y0018067D01*
X0020094Y0018067D02*
X0020094Y0016611D01*
X0018854Y0015370D02*
X0017398Y0015370D01*
X0017398Y0013795D02*
X0018854Y0013795D01*
X0018854Y0012220D02*
X0017398Y0012220D01*
X0017398Y0010646D02*
X0018854Y0010646D01*
X0018854Y0009071D02*
X0017398Y0009071D01*
X0017398Y0007496D02*
X0018854Y0007496D01*
X0020094Y0006256D02*
X0020094Y0004800D01*
X0021669Y0004800D02*
X0021669Y0006256D01*
X0023244Y0006256D02*
X0023244Y0004800D01*
X0024819Y0004800D02*
X0024819Y0006256D01*
X0026394Y0006256D02*
X0026394Y0004800D01*
X0027969Y0004800D02*
X0027969Y0006256D01*
X0029209Y0007496D02*
X0030665Y0007496D01*
D13*
X0019504Y0022850D03*
X0019504Y0029543D03*
M02*
